<svg width="120" height="117" viewBox="0 0 120 117" fill="none" xmlns="http://www.w3.org/2000/svg">
<rect x="14.3398" y="31.3518" width="90.6866" height="86.4161" rx="25" transform="rotate(-10.746 14.3398 31.3518)" fill="black"/>
<rect x="15.1221" y="16.3477" width="90.6866" height="86.4161" rx="25" transform="rotate(2.16493 15.1221 16.3477)" fill="#F47025"/>
<rect x="2" y="31.392" width="90.6866" height="86.4161" rx="25" transform="rotate(-9.77194 2 31.392)" fill="#0056B8"/>
<rect x="0.664438" y="38.5592" width="89.6866" height="85.4161" rx="24.5" transform="rotate(-24.994 0.664438 38.5592)" fill="#FBFBFB" stroke="#D0D0D0"/>
<path d="M49.2536 79.8608L47.3173 80.804L41.5165 78.7317C42.8221 77.9353 43.6812 77.7394 45.5898 78.1318C47.2939 78.6744 48.0456 79.0774 49.2536 79.8608Z" fill="#004C90"/>
<path d="M83.3168 68.9121C83.3168 68.9121 82.4756 69.3714 81.7645 69.9877C81.9404 66.4978 82.2487 64.8156 83.657 62.9435C84.2372 62.4817 84.5292 62.3696 84.8773 62.9347C85.2253 63.4998 83.3168 68.9121 83.3168 68.9121Z" fill="#004C90"/>
<path d="M79.7689 82.8318L85.2812 94.1484L80.8922 96.2862L72.3663 78.3454C72.234 77.0249 72.2251 76.3023 72.4217 75.0709C72.4083 73.6361 72.3902 72.7994 72.2708 71.0451C72.2121 69.0881 72.3529 68.1719 72.8922 66.856C73.2318 66.6744 73.3822 66.6968 73.5762 66.9487C74.1457 69.4655 74.5396 70.8723 75.479 73.3688C75.6801 73.4405 75.7435 73.3788 75.8232 73.2011C75.9429 72.1312 76.0076 71.5269 75.8786 69.9266C75.6898 67.4529 75.9165 66.6462 76.5022 65.5235C76.7606 65.0807 77.2139 65.0171 77.4477 65.1694C77.6816 65.3217 77.6666 68.8141 78.1931 71.7273C78.4014 71.7934 78.4934 71.7383 78.6234 71.5177C78.9973 66.9258 79.2218 64.9796 79.6852 64.0795C79.9564 63.8218 80.1196 63.7498 80.4575 63.9163C80.8237 66.5354 80.9716 68.0042 81.1157 70.6231C80.4474 71.5764 80.0148 72.0065 79.1683 72.6364C77.6747 74.3295 77.0472 75.263 76.4485 76.8894L76.6404 76.9556L86.8343 66.1873C88.2419 65.1451 89.0252 64.5469 90.7499 64.28L90.7652 64.2849C91.2195 64.4314 91.4789 64.515 91.5949 65.359C90.0321 66.8613 89.1217 67.8531 87.4154 70.0035L82.8762 76.3139C81.1438 78.6648 80.3825 80.0618 79.7689 82.8318Z" fill="#004C90"/>
<path d="M43.5351 69.8693C45.3015 69.0691 46.4623 68.699 48.9037 68.2125C47.7994 67.6391 46.8685 67.6356 44.8393 67.9563C42.25 68.711 41.1272 69.1444 39.2743 69.9749C36.6029 71.1833 35.2572 71.9557 33.0306 73.442C30.4761 75.3926 29.0837 76.5129 27.6408 79.2085C27.1941 80.0607 27.059 80.6187 27.079 81.7713C27.3754 82.1713 27.5767 82.136 27.955 81.9302L29.7325 79.7867C30.8599 78.4939 31.5361 77.8167 32.8043 76.6934C34.4923 75.3671 35.4505 74.6566 37.1834 73.4423C39.6627 71.8477 41.0648 71.0522 43.5351 69.8693Z" fill="url(#paint0_linear_2_916)"/>
<path d="M32.8215 64.7063C35.3327 66.5268 36.7085 67.5718 41.1145 67.9604C36.093 69.6274 33.3579 70.5017 30.7723 70.3362C32.898 69.4897 34.1125 69.0699 36.3362 68.4246C33.5302 66.4997 33.4589 65.9159 32.8215 64.7063Z" fill="#419F54"/>
<path d="M78.8272 55.9793C77.2977 57.5877 76.567 58.5936 75.4829 60.5896L79.2264 58.7662C80.4261 58.2084 81.6158 57.9165 83.5413 57.5694C85.8172 57.418 87.0063 57.235 88.9022 56.6618C86.8674 56.4289 85.6825 56.4132 83.4432 56.7122C80.864 57.064 79.7329 57.4015 79.5398 57.4423C79.3467 57.4831 80.5796 56.0613 81.6825 55.1741C82.8662 54.1617 83.6068 53.5827 85.1778 52.5133C82.3538 53.5158 80.9794 54.291 78.8272 55.9793Z" fill="#004C90"/>
<path d="M69.7389 55.3332C69.7132 55.1495 69.9375 55.0402 70.0663 55.1737L71.0092 56.1511C71.0668 56.2108 71.1562 56.2266 71.2308 56.1903L72.4518 55.5956C72.6185 55.5144 72.7918 55.694 72.7046 55.8577L72.0664 57.0565C72.0274 57.1297 72.04 57.2197 72.0976 57.2794L73.0405 58.2568C73.1693 58.3903 73.052 58.6106 72.8694 58.5783L71.532 58.3417C71.4504 58.3273 71.3687 58.3671 71.3297 58.4403L70.6915 59.6391C70.6043 59.8028 70.3586 59.7594 70.3329 59.5757L70.1446 58.2307C70.1331 58.1485 70.07 58.0832 69.9883 58.0687L68.651 57.8322C68.4683 57.7999 68.4337 57.5528 68.6005 57.4716L69.8214 56.8768C69.896 56.8405 69.9387 56.7603 69.9272 56.6782L69.7389 55.3332Z" fill="#FE3C34"/>
<path d="M72.9676 45.3488C72.9419 45.1651 73.1663 45.0558 73.295 45.1893L74.2379 46.1667C74.2955 46.2264 74.385 46.2422 74.4596 46.2059L75.6805 45.6112C75.8473 45.53 76.0205 45.7096 75.9334 45.8733L75.2952 47.0721C75.2562 47.1453 75.2688 47.2353 75.3264 47.295L76.2693 48.2724C76.398 48.4059 76.2808 48.6261 76.0982 48.5938L74.7608 48.3573C74.6791 48.3429 74.5974 48.3827 74.5585 48.4559L73.9202 49.6547C73.8331 49.8184 73.5874 49.7749 73.5617 49.5913L73.3733 48.2463C73.3618 48.1641 73.2988 48.0988 73.2171 48.0843L71.8797 47.8478C71.6971 47.8155 71.6625 47.5684 71.8292 47.4871L73.0502 46.8924C73.1248 46.8561 73.1675 46.7759 73.156 46.6938L72.9676 45.3488Z" fill="#FE3C34"/>
<path d="M90.6455 58.0332C90.6198 57.8495 90.8441 57.7402 90.9729 57.8737L91.9641 58.9012C92.0217 58.9609 92.1111 58.9767 92.1857 58.9404L93.4692 58.3152C93.6359 58.234 93.8092 58.4136 93.722 58.5773L93.0511 59.8375C93.0122 59.9107 93.0248 60.0007 93.0823 60.0604L94.0736 61.0879C94.2023 61.2214 94.0851 61.4416 93.9024 61.4093L92.4966 61.1607C92.4149 61.1462 92.3332 61.186 92.2942 61.2592L91.6233 62.5194C91.5362 62.6832 91.2905 62.6397 91.2648 62.456L91.0668 61.0422C91.0553 60.96 90.9922 60.8946 90.9105 60.8802L89.5047 60.6315C89.3221 60.5992 89.2875 60.3521 89.4542 60.2709L90.7377 59.6457C90.8123 59.6094 90.855 59.5292 90.8435 59.4471L90.6455 58.0332Z" fill="#FE3C34"/>
<path d="M91.0345 49.4321C91.0088 49.2484 91.2332 49.1392 91.3619 49.2726L92.1117 50.0498C92.1693 50.1095 92.2588 50.1254 92.3333 50.089L93.3042 49.6161C93.4709 49.5349 93.6442 49.7145 93.557 49.8782L93.0495 50.8315C93.0106 50.9047 93.0232 50.9947 93.0807 51.0544L93.8305 51.8316C93.9593 51.9651 93.842 52.1853 93.6594 52.153L92.596 51.9649C92.5143 51.9505 92.4326 51.9903 92.3936 52.0635L91.8862 53.0168C91.799 53.1805 91.5533 53.137 91.5276 52.9533L91.3778 51.8838C91.3663 51.8017 91.3032 51.7363 91.2216 51.7219L90.1581 51.5338C89.9755 51.5015 89.9409 51.2544 90.1076 51.1732L91.0785 50.7002C91.1531 50.6639 91.1958 50.5837 91.1843 50.5016L91.0345 49.4321Z" fill="#FE3C34"/>
<path d="M60.9067 44.1961C60.881 44.0124 61.1054 43.9032 61.2341 44.0366L61.9839 44.8139C62.0415 44.8736 62.131 44.8894 62.2055 44.8531L63.1764 44.3802C63.3431 44.2989 63.5164 44.4785 63.4292 44.6422L62.9217 45.5955C62.8828 45.6687 62.8954 45.7587 62.9529 45.8184L63.7027 46.5956C63.8315 46.7291 63.7142 46.9493 63.5316 46.917L62.4682 46.729C62.3865 46.7145 62.3048 46.7543 62.2658 46.8275L61.7584 47.7808C61.6712 47.9445 61.4255 47.901 61.3998 47.7174L61.25 46.6479C61.2385 46.5657 61.1754 46.5003 61.0938 46.4859L60.0303 46.2978C59.8477 46.2655 59.8131 46.0184 59.9798 45.9372L60.9507 45.4643C61.0253 45.428 61.068 45.3477 61.0565 45.2656L60.9067 44.1961Z" fill="#FE3C34"/>
<path d="M69.1465 34.0069C69.1208 33.8233 69.3451 33.714 69.4739 33.8475L69.9822 34.3744C70.0398 34.4341 70.1293 34.4499 70.2038 34.4136L70.8621 34.093C71.0288 34.0118 71.2021 34.1913 71.1149 34.3551L70.7708 35.0014C70.7319 35.0746 70.7445 35.1646 70.8021 35.2242L71.3104 35.7512C71.4392 35.8847 71.3219 36.1049 71.1393 36.0726L70.4183 35.9451C70.3366 35.9307 70.2549 35.9705 70.2159 36.0437L69.8719 36.69C69.7847 36.8537 69.539 36.8102 69.5133 36.6266L69.4118 35.9015C69.4002 35.8193 69.3372 35.7539 69.2555 35.7395L68.5345 35.612C68.3519 35.5797 68.3173 35.3325 68.484 35.2513L69.1423 34.9307C69.2168 34.8944 69.2595 34.8142 69.248 34.732L69.1465 34.0069Z" fill="#FE3C34"/>
<path d="M81.9507 41.9315C81.9249 41.7478 82.1493 41.6385 82.278 41.772L83.4141 42.9496C83.4717 43.0093 83.5612 43.0252 83.6357 42.9888L85.1068 42.2723C85.2735 42.1911 85.4468 42.3707 85.3596 42.5344L84.5907 43.9787C84.5517 44.052 84.5643 44.1419 84.6219 44.2016L85.758 45.3793C85.8867 45.5128 85.7695 45.733 85.5868 45.7007L83.9755 45.4157C83.8939 45.4013 83.8122 45.4411 83.7732 45.5143L83.0043 46.9587C82.9171 47.1224 82.6714 47.0789 82.6457 46.8953L82.4188 45.2748C82.4073 45.1926 82.3442 45.1272 82.2625 45.1128L80.6512 44.8278C80.4686 44.7955 80.434 44.5484 80.6007 44.4672L82.0718 43.7506C82.1464 43.7143 82.1891 43.6341 82.1776 43.552L81.9507 41.9315Z" fill="#FE3C34"/>
<path d="M78.9861 26.4458C78.9603 26.2621 79.1847 26.1528 79.3134 26.2863L80.4495 27.464C80.5071 27.5236 80.5966 27.5395 80.6711 27.5032L82.1422 26.7866C82.3089 26.7054 82.4822 26.885 82.395 27.0487L81.6261 28.4931C81.5871 28.5663 81.5997 28.6563 81.6573 28.7159L82.7934 29.8936C82.9221 30.0271 82.8049 30.2473 82.6222 30.215L81.0109 29.9301C80.9293 29.9156 80.8476 29.9554 80.8086 30.0286L80.0397 31.473C79.9525 31.6367 79.7068 31.5932 79.6811 31.4096L79.4542 29.7891C79.4427 29.7069 79.3796 29.6415 79.2979 29.6271L77.6866 29.3421C77.504 29.3098 77.4694 29.0627 77.6361 28.9815L79.1072 28.2649C79.1818 28.2286 79.2245 28.1484 79.213 28.0663L78.9861 26.4458Z" fill="#FE3C34"/>
<path d="M67.6185 20.377C67.5928 20.1933 67.8171 20.0841 67.9459 20.2175L69.082 21.3952C69.1395 21.4549 69.229 21.4707 69.3036 21.4344L70.7747 20.7178C70.9414 20.6366 71.1146 20.8162 71.0275 20.9799L70.2585 22.4243C70.2196 22.4975 70.2322 22.5875 70.2897 22.6472L71.4258 23.8248C71.5546 23.9583 71.4373 24.1786 71.2547 24.1463L69.6434 23.8613C69.5617 23.8468 69.48 23.8866 69.4411 23.9598L68.6721 25.4042C68.585 25.5679 68.3392 25.5245 68.3135 25.3408L68.0866 23.7203C68.0751 23.6382 68.012 23.5728 67.9304 23.5583L66.3191 23.2734C66.1364 23.2411 66.1018 22.9939 66.2686 22.9127L67.7396 22.1962C67.8142 22.1598 67.8569 22.0796 67.8454 21.9975L67.6185 20.377Z" fill="#FE3C34"/>
<path d="M29.9668 42.976C29.9411 42.7924 30.1654 42.6831 30.2942 42.8166L31.4302 43.9942C31.4878 44.0539 31.5773 44.0697 31.6518 44.0334L33.1229 43.3168C33.2897 43.2356 33.4629 43.4152 33.3757 43.5789L32.6068 45.0233C32.5678 45.0965 32.5804 45.1865 32.638 45.2462L33.7741 46.4238C33.9028 46.5573 33.7856 46.7776 33.603 46.7453L31.9917 46.4603C31.91 46.4459 31.8283 46.4856 31.7893 46.5589L31.0204 48.0032C30.9332 48.1669 30.6875 48.1235 30.6618 47.9398L30.4349 46.3193C30.4234 46.2372 30.3603 46.1718 30.2786 46.1573L28.6673 45.8724C28.4847 45.8401 28.4501 45.5929 28.6168 45.5117L30.0879 44.7952C30.1625 44.7589 30.2052 44.6787 30.1937 44.5965L29.9668 42.976Z" fill="#FE3C34"/>
<path d="M25.6273 32.783C25.6304 32.5976 25.869 32.5245 25.9755 32.6763L27.3033 34.5695C27.3509 34.6374 27.4368 34.6669 27.5161 34.6426L29.727 33.9649C29.9043 33.9105 30.0476 34.1148 29.9361 34.263L28.5459 36.1108C28.496 36.1771 28.4945 36.268 28.5421 36.3359L29.8699 38.2291C29.9764 38.3809 29.8264 38.5803 29.651 38.5201L27.464 37.7689C27.3855 37.742 27.2987 37.7686 27.2488 37.8349L25.8585 39.6827C25.747 39.8309 25.511 39.7499 25.5141 39.5644L25.5527 37.2523C25.5541 37.1694 25.5019 37.095 25.4235 37.0681L23.2365 36.3169C23.0611 36.2566 23.0652 36.0071 23.2426 35.9528L25.4534 35.275C25.5327 35.2507 25.5873 35.1781 25.5887 35.0951L25.6273 32.783Z" fill="#FE3C34"/>
<path d="M62.6443 29.4014C62.6185 29.2178 62.8429 29.1085 62.9716 29.242L64.1077 30.4196C64.1653 30.4793 64.2548 30.4951 64.3293 30.4588L65.8004 29.7422C65.9671 29.661 66.1404 29.8406 66.0532 30.0043L65.2843 31.4487C65.2453 31.5219 65.2579 31.6119 65.3155 31.6716L66.4516 32.8492C66.5803 32.9827 66.4631 33.203 66.2804 33.1707L64.6691 32.8857C64.5875 32.8713 64.5058 32.911 64.4668 32.9843L63.6979 34.4286C63.6107 34.5923 63.365 34.5489 63.3393 34.3652L63.1124 32.7447C63.1009 32.6626 63.0378 32.5972 62.9561 32.5827L61.3448 32.2978C61.1622 32.2655 61.1276 32.0183 61.2943 31.9371L62.7654 31.2206C62.84 31.1843 62.8827 31.1041 62.8712 31.0219L62.6443 29.4014Z" fill="#FE3C34"/>
<path d="M46.4696 41.0067C46.4439 40.823 46.6682 40.7138 46.797 40.8472L47.8365 41.9248C47.8941 41.9845 47.9835 42.0003 48.0581 41.964L49.4041 41.3083C49.5708 41.2271 49.7441 41.4067 49.6569 41.5704L48.9534 42.892C48.9144 42.9652 48.927 43.0552 48.9846 43.1149L50.0241 44.1924C50.1528 44.3259 50.0356 44.5462 49.8529 44.5139L48.3786 44.2531C48.2969 44.2387 48.2152 44.2785 48.1763 44.3517L47.4727 45.6733C47.3855 45.837 47.1398 45.7935 47.1141 45.6099L46.9065 44.1271C46.895 44.045 46.8319 43.9796 46.7502 43.9651L45.2759 43.7044C45.0933 43.6721 45.0587 43.425 45.2254 43.3437L46.5714 42.6881C46.646 42.6518 46.6887 42.5716 46.6772 42.4894L46.4696 41.0067Z" fill="#FE3C34"/>
<path d="M38.3218 58.8173C38.296 58.6337 38.5204 58.5244 38.6491 58.6579L39.6886 59.7354C39.7462 59.7951 39.8357 59.8109 39.9103 59.7746L41.2563 59.119C41.423 59.0377 41.5963 59.2173 41.5091 59.381L40.8055 60.7026C40.7666 60.7759 40.7792 60.8658 40.8367 60.9255L41.8762 62.0031C42.005 62.1365 41.8877 62.3568 41.7051 62.3245L40.2308 62.0638C40.1491 62.0493 40.0674 62.0891 40.0284 62.1623L39.3249 63.4839C39.2377 63.6476 38.992 63.6042 38.9663 63.4205L38.7587 61.9377C38.7472 61.8556 38.6841 61.7902 38.6024 61.7758L37.1281 61.515C36.9455 61.4827 36.9108 61.2356 37.0776 61.1544L38.4236 60.4987C38.4982 60.4624 38.5409 60.3822 38.5294 60.3001L38.3218 58.8173Z" fill="#FE3C34"/>
<path d="M28.6372 54.7662C28.6739 54.5844 28.9218 54.5557 28.999 54.7243L29.6224 56.0856C29.6569 56.161 29.7361 56.2056 29.8185 56.196L31.3058 56.0238C31.49 56.0024 31.5939 56.2293 31.4574 56.3549L30.3554 57.3684C30.2944 57.4246 30.2764 57.5136 30.3109 57.589L30.9344 58.9503C31.0116 59.1189 30.8279 59.2878 30.6663 59.1968L29.3619 58.462C29.2896 58.4213 29.1993 58.4317 29.1383 58.4879L28.0363 59.5014C27.8998 59.627 27.6824 59.5045 27.719 59.3227L28.0148 57.855C28.0312 57.7737 27.9934 57.6911 27.9211 57.6503L26.6166 56.9155C26.455 56.8245 26.5043 56.5799 26.6886 56.5585L28.1758 56.3863C28.2582 56.3767 28.3251 56.3152 28.3415 56.2339L28.6372 54.7662Z" fill="#FE3C34"/>
<path d="M25.3032 65.9897C25.2964 65.8044 25.5307 65.7186 25.6452 65.8646L26.4661 66.9117C26.5173 66.977 26.6046 67.0019 26.6825 66.9734L27.9321 66.5162C28.1062 66.4525 28.2602 66.6489 28.1568 66.8028L27.4146 67.9071C27.3683 67.976 27.3716 68.0668 27.4228 68.132L28.2437 69.1792C28.3581 69.3251 28.2189 69.5322 28.0406 69.4814L26.761 69.1168C26.6812 69.094 26.5959 69.1253 26.5496 69.1941L25.8074 70.2984C25.7039 70.4523 25.464 70.384 25.4572 70.1986L25.4085 68.869C25.4055 68.7861 25.3494 68.7146 25.2697 68.6918L23.9901 68.3272C23.8117 68.2764 23.8026 68.027 23.9767 67.9633L25.2263 67.5062C25.3042 67.4777 25.3549 67.4022 25.3518 67.3194L25.3032 65.9897Z" fill="#FE3C34"/>
<path d="M34.498 78.0905C34.4292 77.9182 34.621 77.7587 34.7779 77.8576L35.9468 78.5949C36.017 78.6391 36.1076 78.6332 36.1714 78.5801L37.2338 77.6963C37.3764 77.5777 37.5874 77.7108 37.5418 77.8905L37.2018 79.2301C37.1814 79.3105 37.2151 79.3948 37.2852 79.4391L38.4541 80.1764C38.611 80.2753 38.5496 80.5172 38.3646 80.5293L36.9855 80.6199C36.9028 80.6254 36.8329 80.6835 36.8125 80.7639L36.4725 82.1034C36.4269 82.2832 36.1779 82.2995 36.1092 82.1273L35.5969 80.8437C35.5661 80.7667 35.4893 80.7182 35.4065 80.7237L34.0275 80.8142C33.8424 80.8264 33.7499 80.5946 33.8925 80.476L34.9549 79.5922C35.0186 79.5391 35.041 79.4511 35.0103 79.374L34.498 78.0905Z" fill="#FE3C34"/>
<path d="M52.9959 35.0595C52.9702 34.8758 53.1945 34.7665 53.3233 34.9L54.2421 35.8524C54.2996 35.9121 54.3891 35.9279 54.4637 35.8916L55.6534 35.3121C55.8201 35.2309 55.9934 35.4105 55.9062 35.5742L55.2843 36.7423C55.2454 36.8155 55.258 36.9055 55.3156 36.9652L56.2343 37.9176C56.3631 38.0511 56.2458 38.2713 56.0632 38.239L54.7601 38.0086C54.6784 37.9941 54.5967 38.0339 54.5578 38.1071L53.9359 39.2752C53.8487 39.4389 53.603 39.3955 53.5773 39.2118L53.3938 37.9013C53.3823 37.8191 53.3192 37.7537 53.2375 37.7393L51.9344 37.5088C51.7518 37.4765 51.7172 37.2294 51.8839 37.1482L53.0736 36.5687C53.1482 36.5324 53.1909 36.4522 53.1794 36.37L52.9959 35.0595Z" fill="#FE3C34"/>
<path d="M41.8464 32.7176C41.8206 32.5339 42.045 32.4246 42.1737 32.5581L43.0925 33.5105C43.1501 33.5702 43.2396 33.586 43.3141 33.5497L44.5039 32.9702C44.6706 32.889 44.8438 33.0686 44.7567 33.2323L44.1348 34.4004C44.0958 34.4736 44.1084 34.5636 44.166 34.6233L45.0848 35.5757C45.2136 35.7092 45.0963 35.9294 44.9137 35.8971L43.6106 35.6667C43.5289 35.6522 43.4472 35.692 43.4082 35.7652L42.7863 36.9333C42.6992 37.097 42.4535 37.0536 42.4278 36.8699L42.2443 35.5594C42.2328 35.4772 42.1697 35.4118 42.088 35.3974L40.7849 35.1669C40.6023 35.1346 40.5677 34.8875 40.7344 34.8063L41.9241 34.2268C41.9987 34.1905 42.0414 34.1103 42.0299 34.0281L41.8464 32.7176Z" fill="#FE3C34"/>
<path d="M51.8171 24.8795C51.7914 24.6958 52.0158 24.5865 52.1445 24.72L52.7012 25.297C52.7587 25.3567 52.8482 25.3725 52.9228 25.3362L53.6436 24.9851C53.8103 24.9039 53.9835 25.0835 53.8964 25.2472L53.5196 25.9549C53.4807 26.0281 53.4933 26.1181 53.5508 26.1778L54.1075 26.7548C54.2362 26.8883 54.119 27.1086 53.9363 27.0763L53.1469 26.9366C53.0652 26.9222 52.9835 26.962 52.9445 27.0352L52.5678 27.7429C52.4806 27.9066 52.2349 27.8631 52.2092 27.6795L52.098 26.8855C52.0865 26.8033 52.0234 26.7379 51.9417 26.7235L51.1523 26.5839C50.9696 26.5516 50.935 26.3044 51.1018 26.2232L51.8225 25.8721C51.8971 25.8358 51.9398 25.7556 51.9283 25.6735L51.8171 24.8795Z" fill="#FE3C34"/>
<path d="M41.3281 43.2605C39.2955 39.6847 38.816 36.2786 39.4235 32.9018C37.4691 35.232 37.4882 37.853 38.1409 40.9798C38.8599 44.4241 40.3726 46.4042 43.2872 48.3754C45.6091 49.9457 47.1436 50.2587 50.1361 50.5228C46.4636 48.5585 43.5312 47.1363 41.3281 43.2605Z" fill="#004C90"/>
<path d="M60.5375 69.2537C63.0637 73.347 63.9901 78.9649 62.7535 76.4262C61.531 73.9164 60.1205 72.5972 57.9868 70.6014L57.9127 70.5322C55.3138 68.1011 53.2349 66.7347 50.3667 65.4235C47.3266 64.0612 46.1194 63.2413 44.1115 61.7625C46.4259 62.3184 48.1052 62.6387 50.7321 63.2225C53.3589 63.8064 58.0113 65.1604 60.5375 69.2537Z" fill="#004C90"/>
<path d="M79.6223 96.9581L71.1025 101.108L64.2489 87.0375C59.2909 85.5576 56.4188 85.2498 51.2106 85.1898C46.0536 85.0647 43.3288 85.2637 38.5329 85.7218C38.1875 84.9823 38.4568 84.5934 39.0868 83.908C41.8485 82.4057 45.8333 81.339 58.2322 78.9479C56.9803 78.1188 55.5172 78.0975 50.4563 79.488C48.5848 78.0002 47.3144 77.0334 44.7009 75.1043C44.4513 74.4703 44.58 74.2618 45.161 74.0816C47.9319 74.9603 49.6136 75.783 52.5282 77.2087L52.684 77.2849C52.8772 77.2469 52.9308 77.1942 52.7943 76.965L48.4466 73.0668C47.7342 71.988 47.7504 71.6689 48.4831 71.6116C51.3657 73.4482 54.9888 75.8961 55.6717 76.0958C56.3546 76.2955 53.4945 72.7823 52.4947 70.7756C52.7666 70.5138 52.9366 70.5112 53.2658 70.7194C54.8859 72.203 55.7988 73.0302 57.4437 74.4874C59.9298 75.6431 61.2326 76.4161 63.379 78.0381C63.8307 79.4815 63.8854 80.3129 62.975 81.9083C62.811 82.6704 63.0741 82.5913 63.6777 82.2581C64.4952 81.2082 64.7591 80.4466 64.9335 78.8248C64.8938 77.0499 64.6926 76.1323 64.1427 74.5783C61.5264 68.5666 59.9479 65.7657 57.0915 60.9767C56.173 59.4307 55.6057 58.614 54.3027 57.4372C52.1919 55.8934 50.9531 55.1897 48.6862 54.1039C46.395 53.4094 44.9835 53.0824 41.8284 52.8126L34.528 52.9081C31.4154 52.8205 29.8118 52.6788 27.4727 52.0857C24.5518 50.9525 23.1115 50.131 21.0486 48.1874C20.1246 47.0072 19.87 46.308 19.5186 45.0463C21.3712 47.3237 22.3534 48.6309 26.3409 49.7621C29.2798 50.3565 30.9898 50.5614 34.2535 50.4864C37.3357 50.2392 38.8999 50.2413 41.6189 50.3059C44.6335 50.5558 46.3095 50.657 49.5271 51.4583C51.9039 52.51 53.2653 53.0415 55.2716 54.8358C54.3879 51.0543 54.2135 48.9054 55.0957 44.9659C56.2237 41.1959 56.9934 39.6693 58.6344 38.1314C56.7241 44.1731 56.5157 47.947 58.1323 55.5719C58.8701 57.8157 59.5283 59.209 60.8294 61.7647C61.0703 57.2623 61.5323 54.9011 63.0598 51.0422C64.4603 49.0108 64.9365 47.5985 66.3281 45.5106C68.266 42.603 69.7023 41.3902 71.8383 38.4611C73.4403 36.3498 74.1058 35.1118 75.1286 32.8655C75.8708 30.8855 76.1074 29.7723 76.3801 27.784C76.7722 29.66 76.879 30.8055 76.5154 33.308C75.5442 35.9473 74.8833 37.3552 73.5372 39.7631L68.0832 47.5838C65.9961 51.5007 65.237 53.6557 64.3204 57.4556C63.9973 61.3625 64.1665 63.5315 65.2023 67.3542L79.6223 96.9581Z" fill="#004C90"/>
<defs>
<linearGradient id="paint0_linear_2_916" x1="37.0377" y1="73.0341" x2="56.2374" y2="64.9065" gradientUnits="userSpaceOnUse">
<stop stop-color="#49A455"/>
<stop offset="1" stop-color="#086070"/>
</linearGradient>
</defs>
</svg>
